solid trombone
facet normal 0.0 0.0 -1.0
outer loop
vertex 156.874674866783 91.2034661135788 0.0
vertex 156.629451792723 86.7217089592368 0.0
vertex 155.863854821189 89.7436310751981 0.0
endloop
endfacet
facet normal 0.0 0.0 -1.0
outer loop
vertex 156.629451792723 86.7217089592368 0.0
vertex 156.874674866783 91.2034661135788 0.0
vertex 156.799822661277 88.0158041847494 0.0
endloop
endfacet
facet normal 0.0 0.0 -1.0
outer loop
vertex 156.799822661277 88.0158041847494 0.0
vertex 156.874674866783 91.2034661135788 0.0
vertex 157.2993247738 89.2217089592368 0.0
endloop
endfacet
facet normal 0.0 0.0 -1.0
outer loop
vertex 157.2993247738 89.2217089592368 0.0
vertex 156.874674866783 91.2034661135788 0.0
vertex 158.244790986218 92.3329161227077 0.0
endloop
endfacet
facet normal 0.0 0.0 -1.0
outer loop
vertex 157.2993247738 89.2217089592368 0.0
vertex 158.244790986218 92.3329161227077 0.0
vertex 158.09391788679 90.2572428651696 0.0
endloop
endfacet
facet normal 0.0 0.0 -1.0
outer loop
vertex 158.09391788679 90.2572428651696 0.0
vertex 158.244790986218 92.3329161227077 0.0
vertex 159.129451792723 91.051835978159 0.0
endloop
endfacet
facet normal 0.0 0.0 -1.0
outer loop
vertex 159.129451792723 91.051835978159 0.0
vertex 158.244790986218 92.3329161227077 0.0
vertex 159.870669964354 93.0466338906754 0.0
endloop
endfacet
facet normal 0.0 0.0 -1.0
outer loop
vertex 159.129451792723 91.051835978159 0.0
vertex 159.870669964354 93.0466338906754 0.0
vertex 160.33535656721 91.5513380906822 0.0
endloop
endfacet
facet normal 0.0 0.0 -1.0
outer loop
vertex 160.33535656721 91.5513380906822 0.0
vertex 159.870669964354 93.0466338906754 0.0
vertex 161.629451792723 93.2906871308873 0.0
endloop
endfacet
facet normal 0.0 0.0 -1.0
outer loop
vertex 160.33535656721 91.5513380906822 0.0
vertex 161.629451792723 93.2906871308873 0.0
vertex 161.629451792723 91.7217089592368 0.0
endloop
endfacet
facet normal 0.0 0.0 -1.0
outer loop
vertex 161.629451792723 91.7217089592368 0.0
vertex 161.629451792723 93.2906871308873 0.0
vertex 163.388233621091 93.0466338906754 0.0
endloop
endfacet
facet normal 0.0 0.0 -1.0
outer loop
vertex 161.629451792723 91.7217089592368 0.0
vertex 163.388233621091 93.0466338906754 0.0
vertex 162.923547018235 91.5513380906822 0.0
endloop
endfacet
facet normal 0.0 0.0 -1.0
outer loop
vertex 162.923547018235 91.5513380906822 0.0
vertex 163.388233621091 93.0466338906754 0.0
vertex 164.129451792723 91.051835978159 0.0
endloop
endfacet
facet normal 0.0 0.0 -1.0
outer loop
vertex 164.129451792723 91.051835978159 0.0
vertex 163.388233621091 93.0466338906754 0.0
vertex 165.014112599227 92.3329161227077 0.0
endloop
endfacet
facet normal 0.0 0.0 -1.0
outer loop
vertex 164.129451792723 91.051835978159 0.0
vertex 165.014112599227 92.3329161227077 0.0
vertex 165.164985698655 90.2572428651696 0.0
endloop
endfacet
facet normal 0.0 0.0 -1.0
outer loop
vertex 165.164985698655 90.2572428651696 0.0
vertex 165.014112599227 92.3329161227077 0.0
vertex 166.384228718663 91.2034661135788 0.0
endloop
endfacet
facet normal 0.0 0.0 -1.0
outer loop
vertex 165.164985698655 90.2572428651696 0.0
vertex 166.384228718663 91.2034661135788 0.0
vertex 165.959578811645 89.2217089592368 0.0
endloop
endfacet
facet normal 0.0 0.0 -1.0
outer loop
vertex 165.959578811645 89.2217089592368 0.0
vertex 166.384228718663 91.2034661135788 0.0
vertex 166.459080924168 88.0158041847495 0.0
endloop
endfacet
facet normal 0.0 0.0 -1.0
outer loop
vertex 166.459080924168 88.0158041847495 0.0
vertex 166.384228718663 91.2034661135788 0.0
vertex 167.395048764256 89.7436310751981 0.0
endloop
endfacet
facet normal 0.0 0.0 -1.0
outer loop
vertex 166.459080924168 88.0158041847495 0.0
vertex 167.395048764256 89.7436310751981 0.0
vertex 166.629451792723 86.7217089592368 0.0
endloop
endfacet
facet normal 0.0 0.0 -1.0
outer loop
vertex 166.629451792723 86.7217089592368 0.0
vertex 162.316740674823 72.1211673558283 0.0
vertex 162.315977811055 72.3348928359874 0.0
endloop
endfacet
facet normal 0.0 0.0 -1.0
outer loop
vertex 162.316740674823 72.1211673558283 0.0
vertex 166.629451792723 86.7217089592368 0.0
vertex 162.377256793841 71.9161869612305 0.0
endloop
endfacet
facet normal 0.0 0.0 -1.0
outer loop
vertex 162.377256793841 71.9161869612305 0.0
vertex 166.629451792723 86.7217089592368 0.0
vertex 162.492694688779 71.7363168546463 0.0
endloop
endfacet
facet normal 0.0 0.0 -1.0
outer loop
vertex 162.492694688779 71.7363168546463 0.0
vertex 166.629451792723 86.7217089592368 0.0
vertex 162.653838041536 71.5959174860839 0.0
endloop
endfacet
facet normal 0.0 0.0 -1.0
outer loop
vertex 162.653838041536 71.5959174860839 0.0
vertex 166.629451792723 86.7217089592368 0.0
vertex 162.847821506638 71.5061980450621 0.0
endloop
endfacet
facet normal 0.0 0.0 -1.0
outer loop
vertex 162.847821506638 71.5061980450621 0.0
vertex 166.629451792723 86.7217089592368 0.0
vertex 163.059157853296 71.474321542556 0.0
endloop
endfacet
facet normal 0.0 0.0 -1.0
outer loop
vertex 163.059157853296 71.474321542556 0.0
vertex 166.629451792723 86.7217089592368 0.0
vertex 163.270974433246 71.5028329313062 0.0
endloop
endfacet
facet normal 0.0 0.0 -1.0
outer loop
vertex 163.270974433246 71.5028329313062 0.0
vertex 166.629451792723 86.7217089592368 0.0
vertex 163.466360257415 71.5894559221583 0.0
endloop
endfacet
facet normal 0.0 0.0 -1.0
outer loop
vertex 163.466360257415 71.5894559221583 0.0
vertex 166.629451792723 86.7217089592368 0.0
vertex 163.629716133621 71.7272747181889 0.0
endloop
endfacet
facet normal 0.0 0.0 -1.0
outer loop
vertex 163.629716133621 71.7272747181889 0.0
vertex 166.629451792723 86.7217089592368 0.0
vertex 163.748000073185 71.9052861573485 0.0
endloop
endfacet
facet normal 0.0 0.0 -1.0
outer loop
vertex 163.748000073185 71.9052861573485 0.0
vertex 166.629451792723 86.7217089592368 0.0
vertex 163.811768535803 72.1092781817165 0.0
endloop
endfacet
facet normal 0.0 0.0 -1.0
outer loop
vertex 163.811768535803 72.1092781817165 0.0
vertex 166.629451792723 86.7217089592368 0.0
vertex 168.066191220554 86.2906871308873 0.0
endloop
endfacet
facet normal 0.0 0.0 -1.0
outer loop
vertex 168.066191220554 86.2906871308873 0.0
vertex 166.629451792723 86.7217089592368 0.0
vertex 167.395048764256 89.7436310751981 0.0
endloop
endfacet
facet normal 0.0 0.0 -1.0
outer loop
vertex 168.066191220554 86.2906871308873 0.0
vertex 167.395048764256 89.7436310751981 0.0
vertex 167.97018983111 88.0637238583925 0.0
endloop
endfacet
facet normal 0.0 0.0 -1.0
outer loop
vertex 155.288713754335 88.0637238583925 0.0
vertex 159.447135049642 72.1092781817165 0.0
vertex 155.192712364891 86.2906871308873 0.0
endloop
endfacet
facet normal 0.0 0.0 -1.0
outer loop
vertex 159.447135049642 72.1092781817165 0.0
vertex 155.288713754335 88.0637238583925 0.0
vertex 155.863854821189 89.7436310751981 0.0
endloop
endfacet
facet normal 0.0 0.0 -1.0
outer loop
vertex 159.447135049642 72.1092781817165 0.0
vertex 155.863854821189 89.7436310751981 0.0
vertex 156.629451792723 86.7217089592368 0.0
endloop
endfacet
facet normal 0.0 0.0 -1.0
outer loop
vertex 159.447135049642 72.1092781817165 0.0
vertex 156.629451792723 86.7217089592368 0.0
vertex 160.94292577439 72.3348928359874 0.0
endloop
endfacet
facet normal 0.0 0.0 -1.0
outer loop
vertex 159.447135049642 72.1092781817165 0.0
vertex 160.94292577439 72.3348928359874 0.0
vertex 159.51090351226 71.9052861573485 0.0
endloop
endfacet
facet normal 0.0 0.0 -1.0
outer loop
vertex 159.51090351226 71.9052861573485 0.0
vertex 160.94292577439 72.3348928359874 0.0
vertex 159.629187451824 71.7272747181889 0.0
endloop
endfacet
facet normal 0.0 0.0 -1.0
outer loop
vertex 159.629187451824 71.7272747181889 0.0
vertex 160.94292577439 72.3348928359874 0.0
vertex 159.79254332803 71.5894559221583 0.0
endloop
endfacet
facet normal 0.0 0.0 -1.0
outer loop
vertex 159.79254332803 71.5894559221583 0.0
vertex 160.94292577439 72.3348928359874 0.0
vertex 159.987929152199 71.5028329313062 0.0
endloop
endfacet
facet normal 0.0 0.0 -1.0
outer loop
vertex 159.987929152199 71.5028329313062 0.0
vertex 160.94292577439 72.3348928359874 0.0
vertex 160.19974573215 71.474321542556 0.0
endloop
endfacet
facet normal 0.0 0.0 -1.0
outer loop
vertex 160.19974573215 71.474321542556 0.0
vertex 160.94292577439 72.3348928359874 0.0
vertex 160.411082078807 71.5061980450621 0.0
endloop
endfacet
facet normal 0.0 0.0 -1.0
outer loop
vertex 160.411082078807 71.5061980450621 0.0
vertex 160.94292577439 72.3348928359874 0.0
vertex 160.605065543909 71.5959174860839 0.0
endloop
endfacet
facet normal 0.0 0.0 -1.0
outer loop
vertex 160.605065543909 71.5959174860839 0.0
vertex 160.94292577439 72.3348928359874 0.0
vertex 160.766208896666 71.7363168546463 0.0
endloop
endfacet
facet normal 0.0 0.0 -1.0
outer loop
vertex 160.766208896666 71.7363168546463 0.0
vertex 160.94292577439 72.3348928359874 0.0
vertex 160.881646791604 71.9161869612305 0.0
endloop
endfacet
facet normal 0.0 0.0 -1.0
outer loop
vertex 160.881646791604 71.9161869612305 0.0
vertex 160.94292577439 72.3348928359874 0.0
vertex 160.942162910622 72.1211673558283 0.0
endloop
endfacet
facet normal -0.0 -0.0 1.0
outer loop
vertex 159.447135049642 72.1092781817165 30.0
vertex 155.288713754335 88.0637238583925 30.0
vertex 155.192712364891 86.2906871308873 30.0
endloop
endfacet
facet normal -0.0 -0.0 1.0
outer loop
vertex 155.288713754335 88.0637238583925 30.0
vertex 159.447135049642 72.1092781817165 30.0
vertex 155.863854821189 89.7436310751981 30.0
endloop
endfacet
facet normal -0.0 -0.0 1.0
outer loop
vertex 155.863854821189 89.7436310751981 30.0
vertex 159.447135049642 72.1092781817165 30.0
vertex 156.629451792723 86.7217089592368 30.0
endloop
endfacet
facet normal -0.0 -0.0 1.0
outer loop
vertex 156.629451792723 86.7217089592368 30.0
vertex 159.447135049642 72.1092781817165 30.0
vertex 160.94292577439 72.3348928359874 30.0
endloop
endfacet
facet normal -0.0 -0.0 1.0
outer loop
vertex 160.94292577439 72.3348928359874 30.0
vertex 159.447135049642 72.1092781817165 30.0
vertex 159.51090351226 71.9052861573485 30.0
endloop
endfacet
facet normal -0.0 -0.0 1.0
outer loop
vertex 160.94292577439 72.3348928359874 30.0
vertex 159.51090351226 71.9052861573485 30.0
vertex 159.629187451824 71.7272747181889 30.0
endloop
endfacet
facet normal -0.0 -0.0 1.0
outer loop
vertex 160.94292577439 72.3348928359874 30.0
vertex 159.629187451824 71.7272747181889 30.0
vertex 159.79254332803 71.5894559221583 30.0
endloop
endfacet
facet normal -0.0 -0.0 1.0
outer loop
vertex 160.94292577439 72.3348928359874 30.0
vertex 159.79254332803 71.5894559221583 30.0
vertex 159.987929152199 71.5028329313062 30.0
endloop
endfacet
facet normal -0.0 -0.0 1.0
outer loop
vertex 160.94292577439 72.3348928359874 30.0
vertex 159.987929152199 71.5028329313062 30.0
vertex 160.19974573215 71.474321542556 30.0
endloop
endfacet
facet normal -0.0 -0.0 1.0
outer loop
vertex 160.94292577439 72.3348928359874 30.0
vertex 160.19974573215 71.474321542556 30.0
vertex 160.411082078807 71.5061980450621 30.0
endloop
endfacet
facet normal -0.0 -0.0 1.0
outer loop
vertex 160.94292577439 72.3348928359874 30.0
vertex 160.411082078807 71.5061980450621 30.0
vertex 160.605065543909 71.5959174860839 30.0
endloop
endfacet
facet normal -0.0 -0.0 1.0
outer loop
vertex 160.94292577439 72.3348928359874 30.0
vertex 160.605065543909 71.5959174860839 30.0
vertex 160.766208896666 71.7363168546463 30.0
endloop
endfacet
facet normal -0.0 -0.0 1.0
outer loop
vertex 160.94292577439 72.3348928359874 30.0
vertex 160.766208896666 71.7363168546463 30.0
vertex 160.881646791604 71.9161869612305 30.0
endloop
endfacet
facet normal -0.0 -0.0 1.0
outer loop
vertex 160.94292577439 72.3348928359874 30.0
vertex 160.881646791604 71.9161869612305 30.0
vertex 160.942162910622 72.1211673558283 30.0
endloop
endfacet
facet normal -0.0 -0.0 1.0
outer loop
vertex 162.316740674823 72.1211673558283 30.0
vertex 166.629451792723 86.7217089592368 30.0
vertex 162.315977811055 72.3348928359874 30.0
endloop
endfacet
facet normal -0.0 -0.0 1.0
outer loop
vertex 166.629451792723 86.7217089592368 30.0
vertex 162.316740674823 72.1211673558283 30.0
vertex 162.377256793841 71.9161869612305 30.0
endloop
endfacet
facet normal -0.0 -0.0 1.0
outer loop
vertex 166.629451792723 86.7217089592368 30.0
vertex 162.377256793841 71.9161869612305 30.0
vertex 162.492694688779 71.7363168546463 30.0
endloop
endfacet
facet normal -0.0 -0.0 1.0
outer loop
vertex 166.629451792723 86.7217089592368 30.0
vertex 162.492694688779 71.7363168546463 30.0
vertex 162.653838041536 71.5959174860839 30.0
endloop
endfacet
facet normal -0.0 -0.0 1.0
outer loop
vertex 166.629451792723 86.7217089592368 30.0
vertex 162.653838041536 71.5959174860839 30.0
vertex 162.847821506638 71.5061980450621 30.0
endloop
endfacet
facet normal -0.0 -0.0 1.0
outer loop
vertex 166.629451792723 86.7217089592368 30.0
vertex 162.847821506638 71.5061980450621 30.0
vertex 163.059157853296 71.474321542556 30.0
endloop
endfacet
facet normal -0.0 -0.0 1.0
outer loop
vertex 166.629451792723 86.7217089592368 30.0
vertex 163.059157853296 71.474321542556 30.0
vertex 163.270974433246 71.5028329313062 30.0
endloop
endfacet
facet normal -0.0 -0.0 1.0
outer loop
vertex 166.629451792723 86.7217089592368 30.0
vertex 163.270974433246 71.5028329313062 30.0
vertex 163.466360257415 71.5894559221583 30.0
endloop
endfacet
facet normal -0.0 -0.0 1.0
outer loop
vertex 166.629451792723 86.7217089592368 30.0
vertex 163.466360257415 71.5894559221583 30.0
vertex 163.629716133621 71.7272747181889 30.0
endloop
endfacet
facet normal -0.0 -0.0 1.0
outer loop
vertex 166.629451792723 86.7217089592368 30.0
vertex 163.629716133621 71.7272747181889 30.0
vertex 163.748000073185 71.9052861573485 30.0
endloop
endfacet
facet normal -0.0 -0.0 1.0
outer loop
vertex 166.629451792723 86.7217089592368 30.0
vertex 163.748000073185 71.9052861573485 30.0
vertex 163.811768535803 72.1092781817165 30.0
endloop
endfacet
facet normal -0.0 -0.0 1.0
outer loop
vertex 166.629451792723 86.7217089592368 30.0
vertex 163.811768535803 72.1092781817165 30.0
vertex 168.066191220554 86.2906871308873 30.0
endloop
endfacet
facet normal -0.0 -0.0 1.0
outer loop
vertex 166.629451792723 86.7217089592368 30.0
vertex 168.066191220554 86.2906871308873 30.0
vertex 167.395048764256 89.7436310751981 30.0
endloop
endfacet
facet normal -0.0 -0.0 1.0
outer loop
vertex 167.395048764256 89.7436310751981 30.0
vertex 168.066191220554 86.2906871308873 30.0
vertex 167.97018983111 88.0637238583925 30.0
endloop
endfacet
facet normal -0.0 -0.0 1.0
outer loop
vertex 156.629451792723 86.7217089592368 30.0
vertex 156.874674866783 91.2034661135788 30.0
vertex 155.863854821189 89.7436310751981 30.0
endloop
endfacet
facet normal -0.0 -0.0 1.0
outer loop
vertex 156.874674866783 91.2034661135788 30.0
vertex 156.629451792723 86.7217089592368 30.0
vertex 156.799822661277 88.0158041847494 30.0
endloop
endfacet
facet normal -0.0 -0.0 1.0
outer loop
vertex 156.874674866783 91.2034661135788 30.0
vertex 156.799822661277 88.0158041847494 30.0
vertex 157.2993247738 89.2217089592368 30.0
endloop
endfacet
facet normal -0.0 -0.0 1.0
outer loop
vertex 156.874674866783 91.2034661135788 30.0
vertex 157.2993247738 89.2217089592368 30.0
vertex 158.244790986218 92.3329161227077 30.0
endloop
endfacet
facet normal -0.0 -0.0 1.0
outer loop
vertex 158.244790986218 92.3329161227077 30.0
vertex 157.2993247738 89.2217089592368 30.0
vertex 158.09391788679 90.2572428651696 30.0
endloop
endfacet
facet normal -0.0 -0.0 1.0
outer loop
vertex 158.244790986218 92.3329161227077 30.0
vertex 158.09391788679 90.2572428651696 30.0
vertex 159.129451792723 91.051835978159 30.0
endloop
endfacet
facet normal -0.0 -0.0 1.0
outer loop
vertex 158.244790986218 92.3329161227077 30.0
vertex 159.129451792723 91.051835978159 30.0
vertex 159.870669964354 93.0466338906754 30.0
endloop
endfacet
facet normal -0.0 -0.0 1.0
outer loop
vertex 159.870669964354 93.0466338906754 30.0
vertex 159.129451792723 91.051835978159 30.0
vertex 160.33535656721 91.5513380906822 30.0
endloop
endfacet
facet normal -0.0 -0.0 1.0
outer loop
vertex 159.870669964354 93.0466338906754 30.0
vertex 160.33535656721 91.5513380906822 30.0
vertex 161.629451792723 93.2906871308873 30.0
endloop
endfacet
facet normal -0.0 -0.0 1.0
outer loop
vertex 161.629451792723 93.2906871308873 30.0
vertex 160.33535656721 91.5513380906822 30.0
vertex 161.629451792723 91.7217089592368 30.0
endloop
endfacet
facet normal -0.0 -0.0 1.0
outer loop
vertex 161.629451792723 93.2906871308873 30.0
vertex 161.629451792723 91.7217089592368 30.0
vertex 162.923547018235 91.5513380906822 30.0
endloop
endfacet
facet normal -0.0 -0.0 1.0
outer loop
vertex 161.629451792723 93.2906871308873 30.0
vertex 162.923547018235 91.5513380906822 30.0
vertex 163.388233621091 93.0466338906754 30.0
endloop
endfacet
facet normal -0.0 -0.0 1.0
outer loop
vertex 163.388233621091 93.0466338906754 30.0
vertex 162.923547018235 91.5513380906822 30.0
vertex 164.129451792723 91.051835978159 30.0
endloop
endfacet
facet normal -0.0 -0.0 1.0
outer loop
vertex 163.388233621091 93.0466338906754 30.0
vertex 164.129451792723 91.051835978159 30.0
vertex 165.014112599227 92.3329161227077 30.0
endloop
endfacet
facet normal -0.0 -0.0 1.0
outer loop
vertex 165.014112599227 92.3329161227077 30.0
vertex 164.129451792723 91.051835978159 30.0
vertex 165.164985698655 90.2572428651696 30.0
endloop
endfacet
facet normal -0.0 -0.0 1.0
outer loop
vertex 165.014112599227 92.3329161227077 30.0
vertex 165.164985698655 90.2572428651696 30.0
vertex 166.384228718663 91.2034661135788 30.0
endloop
endfacet
facet normal -0.0 -0.0 1.0
outer loop
vertex 166.384228718663 91.2034661135788 30.0
vertex 165.164985698655 90.2572428651696 30.0
vertex 165.959578811645 89.2217089592368 30.0
endloop
endfacet
facet normal -0.0 -0.0 1.0
outer loop
vertex 166.384228718663 91.2034661135788 30.0
vertex 165.959578811645 89.2217089592368 30.0
vertex 166.459080924168 88.0158041847495 30.0
endloop
endfacet
facet normal -0.0 -0.0 1.0
outer loop
vertex 166.384228718663 91.2034661135788 30.0
vertex 166.459080924168 88.0158041847495 30.0
vertex 167.395048764256 89.7436310751981 30.0
endloop
endfacet
facet normal -0.0 -0.0 1.0
outer loop
vertex 167.395048764256 89.7436310751981 30.0
vertex 166.459080924168 88.0158041847495 30.0
vertex 166.629451792723 86.7217089592368 30.0
endloop
endfacet
facet normal 0.957873382641178 0.287190847395155 0.0
outer loop
vertex 156.629451792723 86.7217089592368 0.0
vertex 160.94292577439 72.3348928359874 30.0
vertex 160.94292577439 72.3348928359874 0.0
endloop
endfacet
facet normal 0.957873382641178 0.287190847395155 0.0
outer loop
vertex 160.94292577439 72.3348928359874 30.0
vertex 156.629451792723 86.7217089592368 0.0
vertex 156.629451792723 86.7217089592368 30.0
endloop
endfacet
facet normal 0.99999362988564 -0.00356934001501588 0.0
outer loop
vertex 160.94292577439 72.3348928359874 0.0
vertex 160.942162910622 72.1211673558283 30.0
vertex 160.942162910622 72.1211673558283 0.0
endloop
endfacet
facet normal 0.99999362988564 -0.00356934001501588 0.0
outer loop
vertex 160.942162910622 72.1211673558283 30.0
vertex 160.94292577439 72.3348928359874 0.0
vertex 160.94292577439 72.3348928359874 30.0
endloop
endfacet
facet normal 0.959076515802021 -0.283147023358989 0.0
outer loop
vertex 160.942162910622 72.1211673558283 0.0
vertex 160.881646791604 71.9161869612305 30.0
vertex 160.881646791604 71.9161869612305 0.0
endloop
endfacet
facet normal 0.959076515802021 -0.283147023358989 0.0
outer loop
vertex 160.881646791604 71.9161869612305 30.0
vertex 160.942162910622 72.1211673558283 0.0
vertex 160.942162910622 72.1211673558283 30.0
endloop
endfacet
facet normal 0.841588755150535 -0.540118845444383 0.0
outer loop
vertex 160.881646791604 71.9161869612305 0.0
vertex 160.766208896666 71.7363168546463 30.0
vertex 160.766208896666 71.7363168546463 0.0
endloop
endfacet
facet normal 0.841588755150535 -0.540118845444383 0.0
outer loop
vertex 160.766208896666 71.7363168546463 30.0
vertex 160.881646791604 71.9161869612305 0.0
vertex 160.881646791604 71.9161869612305 30.0
endloop
endfacet
facet normal 0.656910322988979 -0.753968717885905 0.0
outer loop
vertex 160.766208896666 71.7363168546463 30.0
vertex 160.605065543909 71.5959174860839 0.0
vertex 160.766208896666 71.7363168546463 0.0
endloop
endfacet
facet normal 0.656910322988979 -0.753968717885905 0.0
outer loop
vertex 160.605065543909 71.5959174860839 0.0
vertex 160.766208896666 71.7363168546463 30.0
vertex 160.605065543909 71.5959174860839 30.0
endloop
endfacet
facet normal 0.419785555900513 -0.907623317823698 0.0
outer loop
vertex 160.605065543909 71.5959174860839 30.0
vertex 160.411082078807 71.5061980450621 0.0
vertex 160.605065543909 71.5959174860839 0.0
endloop
endfacet
facet normal 0.419785555900513 -0.907623317823698 0.0
outer loop
vertex 160.411082078807 71.5061980450621 0.0
vertex 160.605065543909 71.5959174860839 30.0
vertex 160.411082078807 71.5061980450621 30.0
endloop
endfacet
facet normal 0.149145995252079 -0.98881518601823 0.0
outer loop
vertex 160.411082078807 71.5061980450621 30.0
vertex 160.19974573215 71.474321542556 0.0
vertex 160.411082078807 71.5061980450621 0.0
endloop
endfacet
facet normal 0.149145995252079 -0.98881518601823 0.0
outer loop
vertex 160.19974573215 71.474321542556 0.0
vertex 160.411082078807 71.5061980450621 30.0
vertex 160.19974573215 71.474321542556 30.0
endloop
endfacet
facet normal -0.133401067145402 -0.991062134926195 -0.0
outer loop
vertex 160.19974573215 71.474321542556 30.0
vertex 159.987929152199 71.5028329313062 0.0
vertex 160.19974573215 71.474321542556 0.0
endloop
endfacet
facet normal -0.133401067145402 -0.991062134926195 -0.0
outer loop
vertex 159.987929152199 71.5028329313062 0.0
vertex 160.19974573215 71.474321542556 30.0
vertex 159.987929152199 71.5028329313062 30.0
endloop
endfacet
facet normal -0.405297669651631 -0.914184772885087 -0.0
outer loop
vertex 159.987929152199 71.5028329313062 30.0
vertex 159.79254332803 71.5894559221583 0.0
vertex 159.987929152199 71.5028329313062 0.0
endloop
endfacet
facet normal -0.405297669651631 -0.914184772885087 -0.0
outer loop
vertex 159.79254332803 71.5894559221583 0.0
vertex 159.987929152199 71.5028329313062 30.0
vertex 159.79254332803 71.5894559221583 30.0
endloop
endfacet
facet normal -0.644836160884885 -0.764320826364978 -0.0
outer loop
vertex 159.79254332803 71.5894559221583 30.0
vertex 159.629187451824 71.7272747181889 0.0
vertex 159.79254332803 71.5894559221583 0.0
endloop
endfacet
facet normal -0.644836160884885 -0.764320826364978 -0.0
outer loop
vertex 159.629187451824 71.7272747181889 0.0
vertex 159.79254332803 71.5894559221583 30.0
vertex 159.629187451824 71.7272747181889 30.0
endloop
endfacet
facet normal -0.832892292831992 -0.553435116830389 -0.0
outer loop
vertex 159.51090351226 71.9052861573485 30.0
vertex 159.629187451824 71.7272747181889 0.0
vertex 159.629187451824 71.7272747181889 30.0
endloop
endfacet
facet normal -0.832892292831992 -0.553435116830389 -0.0
outer loop
vertex 159.629187451824 71.7272747181889 0.0
vertex 159.51090351226 71.9052861573485 30.0
vertex 159.51090351226 71.9052861573485 0.0
endloop
endfacet
facet normal -0.954452060482018 -0.298364314624974 -0.0
outer loop
vertex 159.447135049642 72.1092781817165 30.0
vertex 159.51090351226 71.9052861573485 0.0
vertex 159.51090351226 71.9052861573485 30.0
endloop
endfacet
facet normal -0.954452060482018 -0.298364314624974 -0.0
outer loop
vertex 159.51090351226 71.9052861573485 0.0
vertex 159.447135049642 72.1092781817165 30.0
vertex 159.447135049642 72.1092781817165 0.0
endloop
endfacet
facet normal -0.957826285221152 -0.287347885566345 -0.0
outer loop
vertex 155.192712364891 86.2906871308873 30.0
vertex 159.447135049642 72.1092781817165 0.0
vertex 159.447135049642 72.1092781817165 30.0
endloop
endfacet
facet normal -0.957826285221152 -0.287347885566345 -0.0
outer loop
vertex 159.447135049642 72.1092781817165 0.0
vertex 155.192712364891 86.2906871308873 30.0
vertex 155.192712364891 86.2906871308873 0.0
endloop
endfacet
facet normal -0.981629412078244 0.190797529708644 0.0
outer loop
vertex 155.288713754335 88.0637238583925 30.0
vertex 155.192712364891 86.2906871308873 0.0
vertex 155.192712364891 86.2906871308873 30.0
endloop
endfacet
facet normal -0.998537365063495 0.0540659835021241 0.0
outer loop
vertex 155.192712364891 86.2906871308873 0.0
vertex 155.288713754335 88.0637238583925 30.0
vertex 155.288713754335 88.0637238583925 0.0
endloop
endfacet
facet normal -0.892590031504535 0.450869200166449 0.0
outer loop
vertex 155.863854821189 89.7436310751981 30.0
vertex 155.288713754335 88.0637238583925 0.0
vertex 155.288713754335 88.0637238583925 30.0
endloop
endfacet
facet normal -0.981629412078244 0.190797529708644 0.0
outer loop
vertex 155.288713754335 88.0637238583925 0.0
vertex 155.863854821189 89.7436310751981 30.0
vertex 155.863854821189 89.7436310751981 0.0
endloop
endfacet
facet normal -0.736101830751632 0.676870810985446 0.0
outer loop
vertex 156.874674866783 91.2034661135788 30.0
vertex 155.863854821189 89.7436310751981 0.0
vertex 155.863854821189 89.7436310751981 30.0
endloop
endfacet
facet normal -0.892590031504535 0.450869200166449 0.0
outer loop
vertex 155.863854821189 89.7436310751981 0.0
vertex 156.874674866783 91.2034661135788 30.0
vertex 156.874674866783 91.2034661135788 0.0
endloop
endfacet
facet normal -0.736101830751632 0.676870810985446 0.0
outer loop
vertex 156.874674866783 91.2034661135788 30.0
vertex 158.244790986218 92.3329161227077 0.0
vertex 156.874674866783 91.2034661135788 0.0
endloop
endfacet
facet normal -0.523989885319152 0.85172448601835 0.0
outer loop
vertex 158.244790986218 92.3329161227077 0.0
vertex 156.874674866783 91.2034661135788 30.0
vertex 158.244790986218 92.3329161227077 30.0
endloop
endfacet
facet normal -0.523989885319152 0.85172448601835 0.0
outer loop
vertex 158.244790986218 92.3329161227077 30.0
vertex 159.870669964354 93.0466338906754 0.0
vertex 158.244790986218 92.3329161227077 0.0
endloop
endfacet
facet normal -0.272282494829956 0.962217357466168 0.0
outer loop
vertex 159.870669964354 93.0466338906754 0.0
vertex 158.244790986218 92.3329161227077 30.0
vertex 159.870669964354 93.0466338906754 30.0
endloop
endfacet
facet normal -0.272282494829956 0.962217357466168 0.0
outer loop
vertex 159.870669964354 93.0466338906754 30.0
vertex 161.629451792723 93.2906871308873 0.0
vertex 159.870669964354 93.0466338906754 0.0
endloop
endfacet
facet normal -8.83033137618434e-16 1.0 0.0
outer loop
vertex 161.629451792723 93.2906871308873 0.0
vertex 159.870669964354 93.0466338906754 30.0
vertex 161.629451792723 93.2906871308873 30.0
endloop
endfacet
facet normal -8.83033137618434e-16 1.0 0.0
outer loop
vertex 161.629451792723 93.2906871308873 30.0
vertex 163.388233621091 93.0466338906754 0.0
vertex 161.629451792723 93.2906871308873 0.0
endloop
endfacet
facet normal 0.272282494829952 0.962217357466169 0.0
outer loop
vertex 163.388233621091 93.0466338906754 0.0
vertex 161.629451792723 93.2906871308873 30.0
vertex 163.388233621091 93.0466338906754 30.0
endloop
endfacet
facet normal 0.272282494829952 0.962217357466169 0.0
outer loop
vertex 163.388233621091 93.0466338906754 30.0
vertex 165.014112599227 92.3329161227077 0.0
vertex 163.388233621091 93.0466338906754 0.0
endloop
endfacet
facet normal 0.523989885319149 0.851724486018351 0.0
outer loop
vertex 165.014112599227 92.3329161227077 0.0
vertex 163.388233621091 93.0466338906754 30.0
vertex 165.014112599227 92.3329161227077 30.0
endloop
endfacet
facet normal 0.523989885319149 0.851724486018351 0.0
outer loop
vertex 165.014112599227 92.3329161227077 30.0
vertex 166.384228718663 91.2034661135788 0.0
vertex 165.014112599227 92.3329161227077 0.0
endloop
endfacet
facet normal 0.736101830751627 0.676870810985451 0.0
outer loop
vertex 166.384228718663 91.2034661135788 0.0
vertex 165.014112599227 92.3329161227077 30.0
vertex 166.384228718663 91.2034661135788 30.0
endloop
endfacet
facet normal 0.736101830751627 0.676870810985451 0.0
outer loop
vertex 166.384228718663 91.2034661135788 0.0
vertex 167.395048764256 89.7436310751981 30.0
vertex 167.395048764256 89.7436310751981 0.0
endloop
endfacet
facet normal 0.892590031504534 0.450869200166451 0.0
outer loop
vertex 167.395048764256 89.7436310751981 30.0
vertex 166.384228718663 91.2034661135788 0.0
vertex 166.384228718663 91.2034661135788 30.0
endloop
endfacet
facet normal 0.892590031504534 0.450869200166451 0.0
outer loop
vertex 167.395048764256 89.7436310751981 0.0
vertex 167.97018983111 88.0637238583925 30.0
vertex 167.97018983111 88.0637238583925 0.0
endloop
endfacet
facet normal 0.981629412078245 0.190797529708639 0.0
outer loop
vertex 167.97018983111 88.0637238583925 30.0
vertex 167.395048764256 89.7436310751981 0.0
vertex 167.395048764256 89.7436310751981 30.0
endloop
endfacet
facet normal 0.981629412078245 0.190797529708639 0.0
outer loop
vertex 167.97018983111 88.0637238583925 0.0
vertex 168.066191220554 86.2906871308873 30.0
vertex 168.066191220554 86.2906871308873 0.0
endloop
endfacet
facet normal 0.998537365063495 0.0540659835021237 0.0
outer loop
vertex 168.066191220554 86.2906871308873 30.0
vertex 167.97018983111 88.0637238583925 0.0
vertex 167.97018983111 88.0637238583925 30.0
endloop
endfacet
facet normal 0.957826285221151 -0.287347885566346 0.0
outer loop
vertex 168.066191220554 86.2906871308873 0.0
vertex 163.811768535803 72.1092781817165 30.0
vertex 163.811768535803 72.1092781817165 0.0
endloop
endfacet
facet normal 0.957826285221151 -0.287347885566346 0.0
outer loop
vertex 163.811768535803 72.1092781817165 30.0
vertex 168.066191220554 86.2906871308873 0.0
vertex 168.066191220554 86.2906871308873 30.0
endloop
endfacet
facet normal 0.954452060482018 -0.298364314624974 0.0
outer loop
vertex 163.811768535803 72.1092781817165 0.0
vertex 163.748000073185 71.9052861573485 30.0
vertex 163.748000073185 71.9052861573485 0.0
endloop
endfacet
facet normal 0.954452060482018 -0.298364314624974 0.0
outer loop
vertex 163.748000073185 71.9052861573485 30.0
vertex 163.811768535803 72.1092781817165 0.0
vertex 163.811768535803 72.1092781817165 30.0
endloop
endfacet
facet normal 0.832892292831992 -0.553435116830389 0.0
outer loop
vertex 163.748000073185 71.9052861573485 0.0
vertex 163.629716133621 71.7272747181889 30.0
vertex 163.629716133621 71.7272747181889 0.0
endloop
endfacet
facet normal 0.832892292831992 -0.553435116830389 0.0
outer loop
vertex 163.629716133621 71.7272747181889 30.0
vertex 163.748000073185 71.9052861573485 0.0
vertex 163.748000073185 71.9052861573485 30.0
endloop
endfacet
facet normal 0.644836160884885 -0.764320826364978 0.0
outer loop
vertex 163.629716133621 71.7272747181889 30.0
vertex 163.466360257415 71.5894559221583 0.0
vertex 163.629716133621 71.7272747181889 0.0
endloop
endfacet
facet normal 0.644836160884885 -0.764320826364978 0.0
outer loop
vertex 163.466360257415 71.5894559221583 0.0
vertex 163.629716133621 71.7272747181889 30.0
vertex 163.466360257415 71.5894559221583 30.0
endloop
endfacet
facet normal 0.405297669651631 -0.914184772885087 0.0
outer loop
vertex 163.466360257415 71.5894559221583 30.0
vertex 163.270974433246 71.5028329313062 0.0
vertex 163.466360257415 71.5894559221583 0.0
endloop
endfacet
facet normal 0.405297669651631 -0.914184772885087 0.0
outer loop
vertex 163.270974433246 71.5028329313062 0.0
vertex 163.466360257415 71.5894559221583 30.0
vertex 163.270974433246 71.5028329313062 30.0
endloop
endfacet
facet normal 0.133401067145402 -0.991062134926195 0.0
outer loop
vertex 163.270974433246 71.5028329313062 30.0
vertex 163.059157853296 71.474321542556 0.0
vertex 163.270974433246 71.5028329313062 0.0
endloop
endfacet
facet normal 0.133401067145402 -0.991062134926195 0.0
outer loop
vertex 163.059157853296 71.474321542556 0.0
vertex 163.270974433246 71.5028329313062 30.0
vertex 163.059157853296 71.474321542556 30.0
endloop
endfacet
facet normal -0.149145995252079 -0.98881518601823 -0.0
outer loop
vertex 163.059157853296 71.474321542556 30.0
vertex 162.847821506638 71.5061980450621 0.0
vertex 163.059157853296 71.474321542556 0.0
endloop
endfacet
facet normal -0.149145995252079 -0.98881518601823 -0.0
outer loop
vertex 162.847821506638 71.5061980450621 0.0
vertex 163.059157853296 71.474321542556 30.0
vertex 162.847821506638 71.5061980450621 30.0
endloop
endfacet
facet normal -0.419785555900513 -0.907623317823698 -0.0
outer loop
vertex 162.847821506638 71.5061980450621 30.0
vertex 162.653838041536 71.5959174860839 0.0
vertex 162.847821506638 71.5061980450621 0.0
endloop
endfacet
facet normal -0.419785555900513 -0.907623317823698 -0.0
outer loop
vertex 162.653838041536 71.5959174860839 0.0
vertex 162.847821506638 71.5061980450621 30.0
vertex 162.653838041536 71.5959174860839 30.0
endloop
endfacet
facet normal -0.656910322988979 -0.753968717885905 -0.0
outer loop
vertex 162.653838041536 71.5959174860839 30.0
vertex 162.492694688779 71.7363168546463 0.0
vertex 162.653838041536 71.5959174860839 0.0
endloop
endfacet
facet normal -0.656910322988979 -0.753968717885905 -0.0
outer loop
vertex 162.492694688779 71.7363168546463 0.0
vertex 162.653838041536 71.5959174860839 30.0
vertex 162.492694688779 71.7363168546463 30.0
endloop
endfacet
facet normal -0.841588755150535 -0.540118845444383 -0.0
outer loop
vertex 162.377256793841 71.9161869612305 30.0
vertex 162.492694688779 71.7363168546463 0.0
vertex 162.492694688779 71.7363168546463 30.0
endloop
endfacet
facet normal -0.841588755150535 -0.540118845444383 -0.0
outer loop
vertex 162.492694688779 71.7363168546463 0.0
vertex 162.377256793841 71.9161869612305 30.0
vertex 162.377256793841 71.9161869612305 0.0
endloop
endfacet
facet normal -0.959076515802021 -0.283147023358989 -0.0
outer loop
vertex 162.316740674823 72.1211673558283 30.0
vertex 162.377256793841 71.9161869612305 0.0
vertex 162.377256793841 71.9161869612305 30.0
endloop
endfacet
facet normal -0.959076515802021 -0.283147023358989 -0.0
outer loop
vertex 162.377256793841 71.9161869612305 0.0
vertex 162.316740674823 72.1211673558283 30.0
vertex 162.316740674823 72.1211673558283 0.0
endloop
endfacet
facet normal -0.99999362988564 -0.00356934001501588 -0.0
outer loop
vertex 162.315977811055 72.3348928359874 30.0
vertex 162.316740674823 72.1211673558283 0.0
vertex 162.316740674823 72.1211673558283 30.0
endloop
endfacet
facet normal -0.99999362988564 -0.00356934001501588 -0.0
outer loop
vertex 162.316740674823 72.1211673558283 0.0
vertex 162.315977811055 72.3348928359874 30.0
vertex 162.315977811055 72.3348928359874 0.0
endloop
endfacet
facet normal -0.957873382641177 0.287190847395158 0.0
outer loop
vertex 166.629451792723 86.7217089592368 30.0
vertex 162.315977811055 72.3348928359874 0.0
vertex 162.315977811055 72.3348928359874 30.0
endloop
endfacet
facet normal -0.957873382641177 0.287190847395158 0.0
outer loop
vertex 162.315977811055 72.3348928359874 0.0
vertex 166.629451792723 86.7217089592368 30.0
vertex 166.629451792723 86.7217089592368 0.0
endloop
endfacet
facet normal -0.965925826289069 -0.258819045102519 0.0
outer loop
vertex 166.459080924168 88.0158041847495 30.0
vertex 166.629451792723 86.7217089592368 0.0
vertex 166.629451792723 86.7217089592368 30.0
endloop
endfacet
facet normal -0.991444861373812 -0.130526192220039 -0.0
outer loop
vertex 166.629451792723 86.7217089592368 0.0
vertex 166.459080924168 88.0158041847495 30.0
vertex 166.459080924168 88.0158041847495 0.0
endloop
endfacet
facet normal -0.866025403784435 -0.500000000000006 0.0
outer loop
vertex 165.959578811645 89.2217089592368 30.0
vertex 166.459080924168 88.0158041847495 0.0
vertex 166.459080924168 88.0158041847495 30.0
endloop
endfacet
facet normal -0.965925826289069 -0.258819045102519 0.0
outer loop
vertex 166.459080924168 88.0158041847495 0.0
vertex 165.959578811645 89.2217089592368 30.0
vertex 165.959578811645 89.2217089592368 0.0
endloop
endfacet
facet normal -0.707106781186547 -0.707106781186548 0.0
outer loop
vertex 165.164985698655 90.2572428651696 30.0
vertex 165.959578811645 89.2217089592368 0.0
vertex 165.959578811645 89.2217089592368 30.0
endloop
endfacet
facet normal -0.866025403784435 -0.500000000000006 0.0
outer loop
vertex 165.959578811645 89.2217089592368 0.0
vertex 165.164985698655 90.2572428651696 30.0
vertex 165.164985698655 90.2572428651696 0.0
endloop
endfacet
facet normal -0.707106781186547 -0.707106781186548 0.0
outer loop
vertex 165.164985698655 90.2572428651696 30.0
vertex 164.129451792723 91.051835978159 0.0
vertex 165.164985698655 90.2572428651696 0.0
endloop
endfacet
facet normal -0.500000000000002 -0.866025403784437 0.0
outer loop
vertex 164.129451792723 91.051835978159 0.0
vertex 165.164985698655 90.2572428651696 30.0
vertex 164.129451792723 91.051835978159 30.0
endloop
endfacet
facet normal -0.500000000000002 -0.866025403784437 0.0
outer loop
vertex 164.129451792723 91.051835978159 30.0
vertex 162.923547018235 91.5513380906822 0.0
vertex 164.129451792723 91.051835978159 0.0
endloop
endfacet
facet normal -0.258819045102518 -0.965925826289069 0.0
outer loop
vertex 162.923547018235 91.5513380906822 0.0
vertex 164.129451792723 91.051835978159 30.0
vertex 162.923547018235 91.5513380906822 30.0
endloop
endfacet
facet normal -0.258819045102518 -0.965925826289069 0.0
outer loop
vertex 162.923547018235 91.5513380906822 30.0
vertex 161.629451792723 91.7217089592368 0.0
vertex 162.923547018235 91.5513380906822 0.0
endloop
endfacet
facet normal 5.41795481655332e-15 -1.0 0.0
outer loop
vertex 161.629451792723 91.7217089592368 0.0
vertex 162.923547018235 91.5513380906822 30.0
vertex 161.629451792723 91.7217089592368 30.0
endloop
endfacet
facet normal 5.41795481655332e-15 -1.0 0.0
outer loop
vertex 161.629451792723 91.7217089592368 30.0
vertex 160.33535656721 91.5513380906822 0.0
vertex 161.629451792723 91.7217089592368 0.0
endloop
endfacet
facet normal 0.258819045102523 -0.965925826289068 0.0
outer loop
vertex 160.33535656721 91.5513380906822 0.0
vertex 161.629451792723 91.7217089592368 30.0
vertex 160.33535656721 91.5513380906822 30.0
endloop
endfacet
facet normal 0.258819045102523 -0.965925826289068 0.0
outer loop
vertex 160.33535656721 91.5513380906822 30.0
vertex 159.129451792723 91.051835978159 0.0
vertex 160.33535656721 91.5513380906822 0.0
endloop
endfacet
facet normal 0.500000000000002 -0.866025403784437 0.0
outer loop
vertex 159.129451792723 91.051835978159 0.0
vertex 160.33535656721 91.5513380906822 30.0
vertex 159.129451792723 91.051835978159 30.0
endloop
endfacet
facet normal 0.500000000000002 -0.866025403784437 0.0
outer loop
vertex 159.129451792723 91.051835978159 30.0
vertex 158.09391788679 90.2572428651696 0.0
vertex 159.129451792723 91.051835978159 0.0
endloop
endfacet
facet normal 0.707106781186552 -0.707106781186543 0.0
outer loop
vertex 158.09391788679 90.2572428651696 0.0
vertex 159.129451792723 91.051835978159 30.0
vertex 158.09391788679 90.2572428651696 30.0
endloop
endfacet
facet normal 0.707106781186552 -0.707106781186543 0.0
outer loop
vertex 158.09391788679 90.2572428651696 0.0
vertex 157.2993247738 89.2217089592368 30.0
vertex 157.2993247738 89.2217089592368 0.0
endloop
endfacet
facet normal 0.866025403784439 -0.499999999999999 0.0
outer loop
vertex 157.2993247738 89.2217089592368 30.0
vertex 158.09391788679 90.2572428651696 0.0
vertex 158.09391788679 90.2572428651696 30.0
endloop
endfacet
facet normal 0.866025403784439 -0.499999999999999 0.0
outer loop
vertex 157.2993247738 89.2217089592368 0.0
vertex 156.799822661277 88.0158041847494 30.0
vertex 156.799822661277 88.0158041847494 0.0
endloop
endfacet
facet normal 0.965925826289069 -0.258819045102517 0.0
outer loop
vertex 156.799822661277 88.0158041847494 30.0
vertex 157.2993247738 89.2217089592368 0.0
vertex 157.2993247738 89.2217089592368 30.0
endloop
endfacet
facet normal 0.965925826289069 -0.258819045102517 0.0
outer loop
vertex 156.799822661277 88.0158041847494 0.0
vertex 156.629451792723 86.7217089592368 30.0
vertex 156.629451792723 86.7217089592368 0.0
endloop
endfacet
facet normal 0.991444861373812 -0.130526192220039 0.0
outer loop
vertex 156.629451792723 86.7217089592368 30.0
vertex 156.799822661277 88.0158041847494 0.0
vertex 156.799822661277 88.0158041847494 30.0
endloop
endfacet
endsolid trombone
